{"title":"Lisa Ann from New Dad in Town Hd Porn=MTR","uid":7087010,"size":71213614,"categoryP":"porn","categoryS":"other","magnet":"?xt=urn:btih:b11e26371735b0b655e51b32eda5b9f8d482fc81&amp;dn=Lisa+Ann+from+New+Dad+in+Town+Hd+Porn%3DMTR&amp;tr=udp%3A%2F%2Ftracker.openbittorrent.com%3A80&amp;tr=udp%3A%2F%2Fopen.demonii.com%3A1337&amp;tr=udp%3A%2F%2Ftracker.coppersurfer.tk%3A6969&amp;tr=udp%3A%2F%2Fexodus.desync.com%3A6969","seeders":0,"leechers":1,"uploader":"Devdeep","files":3,"time":1331225901,"description":"Screens...\n &lt;a href=&quot;\nhttp://picturestack.com/221/261/We2LisaAnnfroEx8.jpg&quot; rel=&quot;nofollow&quot; target=&quot;_NEW&quot;&gt;\nhttp://picturestack.com/221/261/We2LisaAnnfroEx8.jpg&lt;/a&gt;\n\nInfo....\n\n\nComplete name                    : Lisa Ann from New Dad in Town.avi\nFormat                           : AVI\nFormat/Info                      : Audio Video Interleave\nFile size                        : 112 MiB\nDuration                         : 12mn 30s\nOverall bit rate                 : 1 255 Kbps\nWriting library                  : The File had been created by Solveig Multimedia AVI Writer\n\nVideo\nID                               : 0\nFormat                           : MPEG-4 Visual\nFormat profile                   : Advanced Simple@L5\nFormat settings, BVOP            : 2\nFormat settings, QPel            : No\nFormat settings, GMC             : No warppoints\nFormat settings, Matrix          : Default (MPEG)\nCodec ID                         : XVID\nCodec ID/Hint                    : XviD\nDuration                         : 12mn 30s\nBit rate                         : 1 125 Kbps\nWidth                            : 640 pixels\nHeight                           : 352 pixels\nDisplay aspect ratio             : 16:9\nFrame rate                       : 23.976 fps\nColor space                      : YUV\nChroma subsampling               : 4:2:0\nBit depth                        : 8 bits\nScan type                        : Progressive\nCompression mode                 : Lossy\nBits/(Pixel*Frame)               : 0.208\nStream size                      : 101 MiB (90%)\nWriting library                  : XviD 1.2.1 (UTC 2008-12-04)\n\nAudio\nID                               : 1\nFormat                           : MPEG Audio\nFormat version                   : Version 1\nFormat profile                   : Layer 3\nMode                             : Joint stereo\nMode extension                   : MS Stereo\nCodec ID                         : 55\nCodec ID/Hint                    : MP3\nDuration                         : 11mn 31s\nBit rate mode                    : Variable\nBit rate                         : 128 Kbps\nChannel(s)                       : 2 channels\nSampling rate                    : 48.0 KHz\nCompression mode                 : Lossy\nDelay relative to video          : 1ms\nStream size                      : 10.5 MiB (9%)\nAlignment                        : Aligned on interleaves\nInterleave, duration             : 24 ms (0.58 video frame)\n\n","torrent":{"xt":"urn:btih:b11e26371735b0b655e51b32eda5b9f8d482fc81","amp;dn":"Lisa+Ann+from+New+Dad+in+Town+Hd+Porn%3DMTR","amp;tr":["udp%3A%2F%2Ftracker.openbittorrent.com%3A80","udp%3A%2F%2Fopen.demonii.com%3A1337","udp%3A%2F%2Ftracker.coppersurfer.tk%3A6969","udp%3A%2F%2Fexodus.desync.com%3A6969"],"infoHash":"b11e26371735b0b655e51b32eda5b9f8d482fc81","infoHashBuffer":{"type":"Buffer","data":[177,30,38,55,23,53,176,182,85,229,27,50,237,165,185,248,212,130,252,129]},"announce":[],"urlList":[]}}